# xmcd
#
# Track frame offsets:
#	150
#	2690
#	14583
#	28231
#	43924
#	59583
#	76993
#	91125
#	103060
#	117684
#	134437
#	148500
#	160672
#	174650
#	190729
#
# Disc length: 2762 seconds
#
# Revision: 2
# Processed by: cddbd v1.5.2PL0 Copyright (c) Steve Scherf et al.
# Submitted via: audiograbber 1.83.01
#
DISCID=cf0ac80f
DTITLE=Bonez MC and RAF Camora - Palmen aus Plastik 2
DYEAR=2018
DGENRE=Deutsch Hip-Hop - Rap
TTITLE0=Bonez MC and RAF Camora - Intro (from "Palmen aus Plastik 2")
TTITLE1=Bonez MC and RAF Camora - Prominent
TTITLE2=Bonez MC and RAF Camora - 500 PS
TTITLE3=Bonez MC and RAF Camora feat. Gzuz - Kokain
TTITLE4=Bonez MC and RAF Camora - Nummer unterdrückt
TTITLE5=Bonez MC and RAF Camora - Von ihnen gelernt
TTITLE6=Bonez MC and RAF Camora - Ja Mann!
TTITLE7=Bonez MC and RAF Camora feat. Hanybal - Kompanie
TTITLE8=Bonez MC and RAF Camora - Nein
TTITLE9=Bonez MC and RAF Camora - Risiko
TTITLE10=Bonez MC and RAF Camora feat. Kontra K - Krimineller
TTITLE11=Bonez MC and RAF Camora - Prophezeit
TTITLE12=Bonez MC and RAF Camora - MDMA
TTITLE13=Bonez MC and RAF Camora - Alien
TTITLE14=Bonez MC and RAF Camora feat. Trettmann - 100
EXTD=2019\n\nMARO\n
EXTT0=
EXTT1=
EXTT2=
EXTT3=
EXTT4=
EXTT5=
EXTT6=
EXTT7=
EXTT8=
EXTT9=
EXTT10=
EXTT11=
EXTT12=
EXTT13=
EXTT14=
PLAYORDER=
